<svg width="18" height="20" viewBox="0 0 18 20" fill="none" xmlns="http://www.w3.org/2000/svg">
<path fill-rule="evenodd" clip-rule="evenodd" d="M3.184 5L4 5H14L14.815 5L13.668 18H5H4.331H2.32353L2.5 20H15.5L16.8235 5H18V3H17H13.584C12.8124 1.2341 11.0503 0 9 0C6.94968 0 5.1876 1.2341 4.41604 3H1H0V5H1.17647L2.14706 16H4.15454L3.184 5ZM11.236 3H6.763L6.89665 2.86086C7.43807 2.32845 8.18068 2 9 2L9.17745 2.00517C9.94085 2.04981 10.6294 2.38052 11.1352 2.89262L11.236 3ZM8 7H6.2V16H8V7ZM11.8 7H10V16H11.8V7Z" fill="#FF4F6E"/>
</svg>
